<?xml version="1.0" encoding="UTF-8" standalone="no"?>
<svg width="178px" height="72px" viewBox="0 0 178 72" version="1.1" xmlns="http://www.w3.org/2000/svg" xmlns:xlink="http://www.w3.org/1999/xlink">
    <!-- Generator: Sketch 40.3 (33839) - http://www.bohemiancoding.com/sketch -->
    <title>TenX Toronto horizontal</title>
    <desc>Created with Sketch.</desc>
    <defs></defs>
    <g id="Page-1" stroke="none" stroke-width="1" fill="none" fill-rule="evenodd">
        <g id="TenX-Toronto-horizontal">
            <path d="M156.446,21.656 C156.627,21.641 156.831,21.517 156.924,21.397 C157.434,20.735 157.917,20.054 158.413,19.38 C160.794,16.15 163.183,12.927 165.55,9.687 C165.93,9.168 166.272,8.604 166.53,8.016 C167.008,6.918 166.196,5.854 165.159,5.866 C160.008,5.921 154.857,5.895 149.708,5.886 C148.954,5.884 148.423,6.223 148.1,6.857 C147.973,7.104 147.952,7.455 148.003,7.736 C148.063,8.062 148.224,8.382 148.394,8.675 C148.889,9.53 149.406,10.372 149.921,11.213 C150.841,12.709 151.759,14.206 152.691,15.694 C153.921,17.661 155.163,19.62 156.446,21.656 L156.446,21.656 Z M154.378,27.493 C153.988,28.028 153.671,28.452 153.367,28.883 C151.99,30.836 150.6,32.782 149.245,34.75 C147.589,37.157 145.956,39.578 144.325,41.998 C143.911,42.614 143.638,43.289 143.555,44.043 C143.458,44.918 144.07,45.618 144.933,45.573 C145.07,45.565 145.209,45.571 145.345,45.571 L163.065,45.571 C163.439,45.571 163.813,45.567 164.186,45.584 C164.889,45.621 165.329,45.014 165.045,44.375 C164.962,44.188 164.861,44.008 164.754,43.834 C163.835,42.315 162.919,40.795 161.991,39.282 C160.803,37.348 159.619,35.412 158.408,33.493 C157.215,31.6 155.996,29.723 154.779,27.847 C154.692,27.712 154.576,27.563 154.378,27.493 L154.378,27.493 Z M172.659,6.119 C172.446,6.198 172.302,6.218 172.206,6.294 C171.794,6.622 171.343,6.922 171,7.313 C169.646,8.854 168.309,10.411 166.999,11.989 C165.709,13.54 164.449,15.115 163.19,16.69 C161.792,18.439 160.407,20.199 159.018,21.957 C158.629,22.45 158.25,22.95 157.877,23.434 C158.956,25.057 160.015,26.645 161.07,28.237 C163.19,31.44 165.305,34.649 167.43,37.846 C168.527,39.496 169.627,41.145 170.756,42.768 C171.163,43.352 171.661,43.875 172.139,44.405 C172.243,44.52 172.398,44.707 172.659,44.815 L172.659,6.119 L172.659,6.119 Z M132.402,5.934 L132.402,6.682 L132.402,44.746 C132.402,44.883 132.396,45.022 132.405,45.159 C132.428,45.532 132.543,45.61 132.926,45.606 C133.866,45.598 134.694,45.618 135.745,45.606 C135.861,45.606 135.99,45.592 136.092,45.541 C136.551,45.317 137.02,45.106 137.455,44.838 C138.945,43.92 140.13,42.664 141.233,41.327 C142.287,40.045 143.335,38.76 144.346,37.448 C145.743,35.633 147.108,33.793 148.478,31.959 C149.46,30.645 150.421,29.317 151.406,28.006 C152.009,27.202 152.638,26.419 153.277,25.6 C153.13,25.399 152.988,25.21 152.854,25.015 C151.684,23.311 150.522,21.602 149.347,19.903 C148.016,17.977 146.689,16.051 145.334,14.143 C143.68,11.818 142.01,9.503 140.323,7.202 C139.753,6.425 138.941,5.94 137.979,5.907 C136.32,5.85 134.657,5.889 132.997,5.895 C132.817,5.895 132.64,5.896 132.402,5.934 L132.402,5.934 Z M177.585,0.979 L177.585,51.022 L127.366,51.022 L127.366,0.979 L177.585,0.979 L177.585,0.979 Z" id="Fill-1" fill="#3583B9"></path>
            <g id="Group" transform="translate(8.000000, 58.000000)" fill="#3583B9">
                <path d="M111.969,13.735 L110.53,13.735 C108.303,10.399 106.032,6.993 103.602,3.352 L103.602,13.666 L101.807,13.666 L101.807,0.534 L103.711,0.534 C105.794,3.68 107.917,6.887 110.038,10.096 C110.102,10.073 110.167,10.049 110.229,10.028 L110.229,0.551 L111.969,0.551 L111.969,13.735" id="Fill-2"></path>
                <path d="M85.085,7.315 C85.023,6.627 85.013,6.145 84.931,5.674 C84.523,3.342 82.837,1.852 80.584,1.807 C78.435,1.762 76.671,3.129 76.136,5.272 C75.832,6.495 75.824,7.725 76.128,8.948 C76.637,10.983 78.199,12.274 80.225,12.356 C82.48,12.448 84.097,11.356 84.744,9.227 C84.951,8.549 85,7.823 85.085,7.315 L85.085,7.315 Z M80.576,0.227 C84.478,0.323 87.029,3.012 87.031,7.202 C87.035,11.329 84.214,14.112 80.296,14.004 C76.463,13.899 73.824,10.954 73.947,6.916 C74.068,2.911 76.822,0.129 80.576,0.227 L80.576,0.227 Z" id="Fill-3"></path>
                <path d="M160.175,7.319 C160.113,6.629 160.103,6.147 160.021,5.678 C159.613,3.344 157.929,1.854 155.675,1.807 C153.527,1.76 151.765,3.125 151.226,5.27 C150.919,6.491 150.912,7.721 151.218,8.944 C151.738,11.026 153.334,12.313 155.431,12.364 C157.611,12.416 159.197,11.315 159.832,9.231 C160.039,8.551 160.087,7.825 160.175,7.319 L160.175,7.319 Z M155.498,0.221 C159.353,0.18 162.039,2.936 162.136,7.034 C162.23,11.034 159.509,13.971 155.673,14.008 C151.8,14.043 149.085,11.264 149.031,7.206 C148.976,3.176 151.673,0.262 155.498,0.221 L155.498,0.221 Z" id="Fill-4"></path>
                <path d="M33.912,7.245 C33.857,6.635 33.847,6.153 33.766,5.682 C33.37,3.391 31.778,1.94 29.545,1.811 C27.45,1.69 25.69,2.94 25.048,5.038 C24.63,6.409 24.62,7.797 25.038,9.166 C25.676,11.26 27.254,12.395 29.411,12.366 C31.542,12.336 33.089,11.135 33.653,9.008 C33.814,8.397 33.84,7.75 33.912,7.245 L33.912,7.245 Z M29.554,14.008 C26.038,13.997 23.61,11.997 22.96,8.772 C22.29,5.448 23.573,2.321 26.227,0.952 C29.579,-0.777 35.059,0.415 35.752,5.944 C36.078,8.547 35.56,10.87 33.437,12.633 C32.243,13.625 30.837,13.987 29.554,14.008 L29.554,14.008 Z" id="Fill-5"></path>
                <path d="M52.424,6.784 C53.543,6.784 54.577,6.852 55.599,6.764 C56.756,6.668 57.419,5.815 57.497,4.534 C57.573,3.274 56.995,2.245 55.874,2.09 C54.758,1.938 53.604,2.057 52.424,2.057 L52.424,6.784 L52.424,6.784 Z M50.561,13.696 L50.561,0.379 C52.653,0.475 54.686,0.469 56.694,0.692 C58.075,0.846 59.028,1.77 59.276,3.182 C59.569,4.838 59.319,6.377 57.899,7.514 C57.653,7.711 57.381,7.875 57.011,8.131 C58.006,9.963 58.989,11.772 60.028,13.686 L58.129,13.686 C57.174,12.02 56.182,10.295 55.208,8.598 L52.417,8.598 L52.417,13.696 L50.561,13.696 L50.561,13.696 Z" id="Fill-6"></path>
                <path d="M3.936,2.077 L0.1,2.077 L0.1,0.522 L9.53,0.522 L9.53,2.082 L5.813,2.082 L5.813,13.676 L3.936,13.676 L3.936,2.077" id="Fill-7"></path>
                <path d="M135.85,2.1 L132.067,2.1 L132.067,13.666 L130.194,13.666 L130.194,2.141 L126.391,2.141 L126.391,0.534 L135.85,0.534 L135.85,2.1 Z" id="Fill-8"></path>
            </g>
            <polygon id="Fill-9" fill="#3583B9" points="0.316 50.934 122.159 50.934 122.159 1.016 0.316 1.016"></polygon>
            <path d="M70.019,44.973 C70.715,42.41 71.402,39.879 72.107,37.276 C71.752,37.153 71.445,37.041 71.096,36.918 C70.795,37.496 70.533,37.998 70.273,38.498 C69.146,40.666 67.439,42.049 64.985,42.428 C60.952,43.051 56.928,42.774 52.762,42.358 C52.66,37.256 52.558,32.213 52.457,27.17 C52.827,27.094 53.038,27.009 53.248,27.013 C56.629,27.056 60.017,27.014 63.394,27.194 C65.21,27.291 66.347,28.431 66.597,30.317 C66.63,30.571 66.738,30.815 66.833,31.143 C67.182,31.09 67.736,31.041 67.8,31.03 C67.205,27.639 67.389,24.61 67.8,21.556 C67.8,21.52 67.863,21.482 67.8,21.391 L66.8,21.391 C66.108,24.01 65.343,24.519 62.37,24.72 C59.564,24.906 56.738,24.784 53.919,24.788 C53.49,24.789 53.062,24.73 52.658,24.7 L52.658,9.99 C56.365,9.99 59.927,9.931 63.484,10.012 C65.862,10.063 67.378,11.405 68.125,13.642 C68.262,14.058 68.421,14.47 68.588,14.876 C68.636,14.987 68.755,15.068 68.87,15.192 C69.148,15.095 69.421,15 69.72,14.897 C69.518,12.346 69.325,9.868 69.116,7.22 C60.375,8.241 51.729,7.816 43.058,7.296 L43.058,8.373 C43.353,8.392 43.527,8.403 43.701,8.415 C46.443,8.604 47.018,9.134 47.421,11.858 C47.473,12.206 47.501,12.56 47.501,12.911 C47.501,21.585 47.512,30.258 47.471,38.934 C47.467,39.928 47.207,40.932 46.984,41.914 C46.738,43.01 45.984,43.649 44.888,43.846 C44.33,43.946 43.755,43.959 43.187,44.022 C43.065,44.035 42.948,44.09 42.829,44.131 L42.829,44.973 C51.945,44.973 60.828,44.75 70.019,44.973" id="Fill-10" fill="#FFFFFF"></path>
            <path d="M78.516,8.455 C80.65,8.715 81.412,9.412 81.811,11.57 C81.964,12.388 82.076,13.226 82.076,14.056 C82.076,21.498 82.073,28.94 82.002,36.381 C81.985,38.043 81.815,39.69 81.6,41.346 C81.416,42.785 80.435,43.719 79.015,43.965 C78.584,44.041 77.58,43.912 77.419,43.973 C77.438,44.276 77.354,44.754 77.366,44.969 C81.906,44.705 85.575,44.705 89.996,44.969 C89.966,44.641 89.938,44.35 89.901,43.973 C89.306,43.973 88.78,44.022 88.26,43.965 C86.061,43.731 85.194,43.02 84.877,40.813 C84.598,38.862 84.468,36.875 84.439,34.901 C84.368,30.233 84.392,25.564 84.382,20.897 C84.37,20.872 84.382,13.732 84.382,13.732 C93.037,24.088 101.964,34.928 110.616,45.278 L112.261,45.278 C112.133,42.553 111.931,39.918 111.906,37.284 C111.857,31.868 111.857,26.45 111.92,21.036 C111.956,18.178 112.027,15.306 112.344,12.47 C112.716,9.151 113.127,8.87 116.416,8.278 C116.403,8.007 116.427,7.723 116.416,7.465 C112.55,7.636 108.971,7.636 104.822,7.465 C104.836,7.765 104.852,8.05 104.868,8.343 C105.505,8.421 106.071,8.473 106.632,8.559 C108.347,8.82 109.069,9.575 109.28,11.317 C109.375,12.101 109.506,12.89 109.512,13.679 C109.575,20.724 109.613,27.769 109.65,34.815 C109.65,35.077 109.667,35.971 109.65,35.989 C109.097,35.35 108.506,34.731 108.12,34.262 C105.133,30.678 102.097,27.132 99.179,23.493 C94.891,18.147 90.077,13.221 86.399,7.468 C83.372,7.636 80.344,7.636 77.303,7.468 C77.335,7.794 77.369,8.086 77.398,8.375 C77.818,8.404 78.17,8.415 78.516,8.455" id="Fill-11" fill="#FFFFFF"></path>
            <path d="M9.012,12.938 C9.651,11.672 10.593,10.69 11.994,10.31 C14.839,9.535 17.733,9.768 20.685,9.756 C20.735,10.416 20.808,11.052 20.811,11.572 C20.826,20.117 20.857,29.264 20.821,37.807 C20.814,39.291 20.737,40.118 20.484,41.586 C20.278,42.782 20.023,43.422 18.09,43.795 C17.275,43.953 16.44,44 15.547,44.104 L15.547,44.971 C20.851,44.705 26.082,44.705 31.131,44.971 C31.111,44.672 31.091,44.356 31.066,43.979 C30.486,43.979 29.997,44.024 29.52,43.971 C27.227,43.719 26.446,42.975 26.112,40.694 C25.971,39.739 25.855,38.77 25.854,37.807 C25.841,28.825 25.841,20.656 25.851,11.674 C25.851,11.374 25.914,10.259 25.955,9.756 C28.628,9.844 31.259,9.846 33.875,10.045 C35.524,10.171 36.709,11.163 37.357,12.718 C37.727,13.605 38.081,14.485 38.462,15.42 C38.819,15.315 39.139,15.24 39.354,15.178 C38.788,12.316 38.788,9.562 38.956,7.134 C36.598,7.31 34.284,7.788 31.965,7.824 C26.901,7.902 21.836,7.861 16.773,7.854 C13.839,7.85 10.889,7.977 8.108,7.134 C8.141,9.747 7.775,12.314 7.007,15.178 C7.265,15.241 7.582,15.342 7.898,15.42 C8.29,14.546 8.618,13.718 9.012,12.938" id="Fill-12" fill="#FFFFFF"></path>
        </g>
    </g>
</svg>